<svg id="Layer_1" data-name="Layer 1" xmlns="http://www.w3.org/2000/svg" xmlns:xlink="http://www.w3.org/1999/xlink" viewBox="0 0 289.53 197.43"><defs><style>.cls-1{fill:none;}.cls-2{clip-path:url(#clip-path);}.cls-3{fill:#0071bc;}.cls-4{fill:#202c5d;}.cls-5{fill:#ed1e79;}.cls-6{fill:#d4145a;}.cls-7{fill:#9e005d;}</style><clipPath id="clip-path"><rect class="cls-1" x="-241.47" y="-331.57" width="1366" height="768"/></clipPath></defs><title>svg</title><g class="cls-2"><path class="cls-3" d="M54.53,98.43a45,45,0,0,0,56.92,43.39A90.07,90.07,0,0,1,111,54.9,45,45,0,0,0,54.53,98.43"/><path class="cls-4" d="M111.45,141.82A45,45,0,1,1,111,54.9a90.33,90.33,0,0,1,33.2-34.42,90,90,0,1,0,1.73,155.89,90.39,90.39,0,0,1-34.45-34.55"/><path class="cls-5" d="M144.53,97.43a45,45,0,0,0,34.93,43.85A90.12,90.12,0,0,0,178,53.93a45,45,0,0,0-33.46,43.5"/><path class="cls-6" d="M190,7.93a89.57,89.57,0,0,0-45.86,12.55A90.48,90.48,0,0,1,178,53.93a45,45,0,1,1,1.47,87.35,90.42,90.42,0,0,1-33.56,35.09A90,90,0,1,0,190,7.93"/><path class="cls-7" d="M179.46,141.28A45,45,0,0,1,178,53.93a90.48,90.48,0,0,0-33.82-33.45A90.33,90.33,0,0,0,111,54.9a45,45,0,0,1,.48,86.92,90.39,90.39,0,0,0,34.45,34.55,90.42,90.42,0,0,0,33.56-35.09"/></g></svg>