<svg id="erasor" xmlns="http://www.w3.org/2000/svg" width="41.075" height="41.075" viewBox="0 0 41.075 41.075">
  <path id="Path_7" data-name="Path 7" d="M923.757,416.9a4.889,4.889,0,0,0-.4-1.359q-.051-.109-.106-.215a4.9,4.9,0,0,0-.874-1.185l-8.975-8.975a4.9,4.9,0,0,0-4.165-1.383q-.233.034-.463.09-.114.028-.228.062c-.1.031-.207.067-.31.1a4.872,4.872,0,0,0-1.758,1.128L889.7,421.942h0l-5.533,5.534a4.9,4.9,0,0,0,0,6.923l8.975,8.975a4.9,4.9,0,0,0,6.923,0l5.534-5.533,16.775-16.775a4.875,4.875,0,0,0,1.411-2.992q.023-.234.023-.469A4.939,4.939,0,0,0,923.757,416.9Zm-24.718,25.448a3.445,3.445,0,0,1-4.872,0l-8.975-8.975a3.445,3.445,0,0,1,0-4.872l4.508-4.508,13.847,13.847Z" transform="translate(-882.733 -403.733)"/>
</svg>
